<svg xmlns="http://www.w3.org/2000/svg" version="1.1" xmlns:xlink="http://www.w3.org/1999/xlink" width="1080" height="1080"><svg id="SvgjsSvg1001" xmlns="http://www.w3.org/2000/svg" version="1.1" viewBox="0 0 1080 1080">
  <!-- Generator: Adobe Illustrator 29.5.1, SVG Export Plug-In . SVG Version: 2.1.0 Build 141)  -->
  <polygon points="454.41 933.59 475.97 933.59 516.48 933.59 525.97 933.59 525.97 708.59 475.97 708.59 475.97 868.77 454.41 868.77 454.41 695.31 525.97 695.31 525.97 630.5 454.41 630.5 454.41 614.45 525.97 614.45 525.97 549.63 454.41 549.63 454.41 533.59 525.97 533.59 525.97 468.77 454.41 468.77 454.41 456.7 475.97 456.7 516.48 456.7 525.97 456.7 525.97 306.27 516.48 306.27 475.97 306.27 454.41 306.27 454.41 211.23 525.97 211.23 525.97 146.41 454.41 146.41 404.41 146.41 404.41 306.27 404.41 369.62 404.41 371.09 475.97 371.09 475.97 391.89 454.41 391.89 404.41 391.89 404.41 456.7 404.41 468.77 404.41 533.59 404.41 549.63 404.41 614.45 404.41 630.5 404.41 695.31 404.41 868.77 404.41 933.59 454.41 933.59"></polygon>
  <rect x="473.63" y="226.34" width="52.34" height="64.82"></rect>
  <polygon points="604.03 933.59 625.59 933.59 675.59 933.59 675.59 868.77 675.59 695.31 675.59 630.5 675.59 614.45 675.59 549.63 675.59 533.59 675.59 468.77 675.59 456.7 675.59 391.89 625.59 391.89 604.03 391.89 604.03 371.09 675.59 371.09 675.59 369.62 675.59 306.27 675.59 146.41 625.59 146.41 554.03 146.41 554.03 211.23 625.59 211.23 625.59 306.27 604.03 306.27 563.52 306.27 554.03 306.27 554.03 456.7 563.52 456.7 604.03 456.7 625.59 456.7 625.59 468.77 554.03 468.77 554.03 533.59 625.59 533.59 625.59 549.63 554.03 549.63 554.03 614.45 625.59 614.45 625.59 630.5 554.03 630.5 554.03 695.31 625.59 695.31 625.59 868.77 604.03 868.77 604.03 708.59 554.03 708.59 554.03 933.59 563.52 933.59 604.03 933.59"></polygon>
  <rect x="554.03" y="226.34" width="52.34" height="64.82"></rect>
  <path d="M1020.7,0H0v1080h1080V0h-59.3ZM1020.7,1020.7H59.3V59.3h961.41v961.41Z"></path>
</svg><style>@media (prefers-color-scheme: light) { :root { filter: none; } }
@media (prefers-color-scheme: dark) { :root { filter: none; } }
</style></svg>